<?xml version="1.0" encoding="UTF-8" standalone="no"?>
<!-- Created with Inkscape (http://www.inkscape.org/) -->

<svg
   width="50mm"
   height="50mm"
   version="1.1"
   viewBox="0 0 50 50"
   xml:space="preserve"
   id="svg27"
   sodipodi:docname="logo.svg"
   inkscape:version="1.2.2 (b0a8486541, 2022-12-01)"
   xmlns:inkscape="http://www.inkscape.org/namespaces/inkscape"
   xmlns:sodipodi="http://sodipodi.sourceforge.net/DTD/sodipodi-0.dtd"
   xmlns="http://www.w3.org/2000/svg"
   xmlns:svg="http://www.w3.org/2000/svg"><sodipodi:namedview
     id="namedview29"
     pagecolor="#505050"
     bordercolor="#eeeeee"
     borderopacity="1"
     inkscape:showpageshadow="0"
     inkscape:pageopacity="0"
     inkscape:pagecheckerboard="0"
     inkscape:deskcolor="#505050"
     inkscape:document-units="mm"
     showgrid="false"
     inkscape:zoom="1.9425073"
     inkscape:cx="158.81537"
     inkscape:cy="93.693343"
     inkscape:window-width="1920"
     inkscape:window-height="1131"
     inkscape:window-x="0"
     inkscape:window-y="0"
     inkscape:window-maximized="1"
     inkscape:current-layer="svg27" /><defs
     id="defs9"><radialGradient
       id="a"
       cx="24.876"
       cy="24.444"
       r="16.923"
       gradientTransform="matrix(1.4119,0,0,1.4699,-10.453568,-10.394874)"
       gradientUnits="userSpaceOnUse"><stop
         stop-color="#40c4f6"
         offset="0"
         id="stop2" /><stop
         stop-color="#0075be"
         stop-opacity=".80521"
         offset=".6519"
         id="stop4" /><stop
         stop-color="#0077b6"
         stop-opacity="0"
         offset="1"
         id="stop6" /></radialGradient></defs><g
     id="g246"
     transform="matrix(1.1699595,0,0,1.1699595,-4.1926334,-4.3398172)"><ellipse
       cx="24.668432"
       cy="25.534426"
       rx="23.893"
       ry="24.875"
       fill="url(#a)"
       stroke-width="7.2028"
       id="ellipse11"
       style="fill:url(#a)" /><path
       d="m 22.726432,46.504426 c -1.5156,-0.21976 -2.1182,-0.34054 -2.4569,-0.49243 -0.21336,-0.09569 -0.82436,-0.30884 -1.3578,-0.47366 -0.53341,-0.16482 -1.4063,-0.51576 -1.9397,-0.77986 -0.53341,-0.2641 -1.3282,-0.59708 -1.7661,-0.73996 -1.0945,-0.35707 -1.2814,-0.46991 -2.2425,-1.3543 -0.46229,-0.42539 -1.147,-0.91055 -1.5216,-1.0781 -3.4194999,-1.5299 -7.1452999,-8.3787 -7.7990999,-14.336 l -0.14192,-1.2931 0.09651,-0.96984 c 0.05308,-0.53341 0.10938,-1.2608 0.1251,-1.6164 0.42733,-9.6621 9.1660999,-18.3130003 19.4239999,-19.2280003 l 1.7134,-0.15287 1.7134,0.15287 c 3.8427,0.34286 6.9339,1.4133 10.051,3.4806 l 1.4898,0.98799 1.6936,1.6899003 1.6936,1.6899 0.93266,1.4086 c 1.7553,2.651 2.8373,5.3597 3.3887,8.4838 l 0.17118,0.96984 0.004,2.3276 c 0.002,1.2802 -0.0422,2.5979 -0.0988,2.9283 l -0.10288,0.60069 -0.56626,0.14808 0.24344,0.178 0.24343,0.178 -0.0862,0.3434 c -0.14594,0.58148 -0.58512,0.42236 -0.89613,-0.32467 l -0.19739,-0.4741 -1.0028,0.1345 -0.13298,-0.17505 c -0.0731,-0.09628 -0.21323,-0.42922 -0.31131,-0.73987 l -0.17831,-0.56482 0.24259,-0.17738 c 0.33538,-0.24524 0.13847,-0.39105 -0.24846,-0.18398 l -0.31556,0.16888 -0.82994,-0.69835 -0.96892,0.1637 -0.0856,-0.13844 c -0.0471,-0.07614 -0.21826,-0.13844 -0.38045,-0.13844 h -0.29489 l -0.14729,0.32328 -0.1473,0.32328 h -0.23984 c -0.13192,0 -0.28369,-0.04364 -0.33727,-0.09698 -0.0536,-0.05334 -0.27913,-0.09698 -0.50122,-0.09698 h -0.4038 l -0.15363,-0.30528 -0.15363,-0.30528 -0.08663,0.27295 c -0.04765,0.15012 -0.04813,0.39426 -10e-4,0.54253 l 0.08556,0.26958 0.31374,-0.07874 c 0.44487,-0.11166 0.74588,0.09191 1.1463,0.77524 0.19178,0.32725 0.37669,0.56701 0.41091,0.53279 0.0342,-0.03422 -0.0145,-0.18805 -0.10839,-0.34185 l -0.17059,-0.27964 0.30527,-0.2502 c 0.5227,-0.4284 1.0674,-0.30923 1.2925,0.28275 l 0.12688,0.33372 1.3233,0.15672 0.78069,0.55591 -0.0786,0.94013 -0.48262,0.09156 -0.74543,-0.81613 -0.31094,0.19218 0.18759,0.05785 c 0.10318,0.03182 0.28943,0.14657 0.4139,0.25499 l 0.22629,0.19714 v 0.69532 c -3e-5,1.2382 -0.42522,1.8508 -1.2846,1.8508 h -0.39643 l 0.25862,0.25862 c 0.33146,0.33146 0.32558,0.40926 -0.0581,0.76975 l -0.31676,0.29758 0.073,0.36511 c 0.0402,0.20081 0.008,0.552 -0.0718,0.78042 -0.20848,0.59804 -0.10821,0.59457 0.55777,-0.01931 l 0.59173,-0.54544 v -1.3895 h 0.16811 c 0.25905,0 0.47845,0.2787 0.47845,0.60776 0,0.34802 0.1512,0.37377 0.57276,0.09755 l 0.30504,-0.19987 0.33697,0.08458 c 0.50716,0.12729 0.28736,0.86432 -0.82662,2.7717 l -0.49489,0.84736 -1.2872,0.83405 h -0.58853 c -0.3237,0 -0.62518,-0.0593 -0.66997,-0.13177 -0.0448,-0.07247 -0.36827,-0.27712 -0.71885,-0.45477 -0.73996,-0.37496 -0.78096,-0.5076 -0.25029,-0.80957 0.55195,-0.31407 0.48556,-0.3789 -0.31966,-0.31212 l -0.70841,0.05875 -0.12891,-0.33906 c -0.0709,-0.18648 -0.21764,-0.33906 -0.32608,-0.33906 -0.10844,0 -0.19717,-0.09017 -0.19717,-0.20039 0,-0.11021 -0.08767,-0.36993 -0.19483,-0.57715 l -0.19466,-0.37677 -0.50637,-0.13635 c -0.2785,-0.07499 -0.528,-0.20123 -0.55443,-0.28053 l -0.04806,-0.14418 -0.57703,0.18314 0.32656,0.3881 c 0.17961,0.21346 0.32656,0.50546 0.32656,0.64891 v 0.26081 l -0.51477,0.13462 0.07509,0.29919 c 0.0413,0.16455 0.03471,0.4264 -0.01464,0.58189 l -0.08973,0.2827 -0.87927,-0.14268 0.16084,0.64086 -0.45867,0.50682 h -0.72668 l -0.13641,-0.25488 -0.13641,-0.25488 -0.36959,0.07392 c -0.20327,0.04066 -0.49308,0.0078 -0.64401,-0.07295 l -0.27442,-0.14687 v 0.63823 l -0.25949,0.08236 c -1.0485,0.33276 -3.1202,-0.75504 -2.9243,-1.5355 l 0.07094,-0.28265 -0.87906,-0.70142 -0.08438,0.26585 c -0.11175,0.3521 -0.5277,0.49203 -1.0874,0.36581 l -0.45522,-0.10267 -0.46881,0.50321 h -0.39615 c -2.6363,0 -7.0266,-3.2912 -8.7173,-6.5349 l -0.44548,-0.85467 v -0.98403 l 0.19322,-0.16036 c 0.10627,-0.0882 0.33382,-0.13348 0.50567,-0.10063 l 0.31244,0.05973 0.1316,-0.28883 0.1316,-0.28883 -0.75729,-0.15146 v -0.3653 c 0,-0.20092 -0.06397,-0.42928 -0.14216,-0.50746 l -0.14216,-0.14216 0.08412,-0.26502 c 0.04626,-0.14576 0.19752,-0.30102 0.33612,-0.34501 0.3194,-0.10137 0.31786,-0.2215 -0.0066,-0.51514 l -0.25862,-0.23405 -0.23648,0.21401 c -0.31996,0.28956 -0.95082,0.26981 -1.3475,-0.04219 l -0.3257,-0.2562 -0.45361,-1.6758 0.15937,-0.81008 c 0.24012,-1.2205 1.0211,-2.4328 1.5672,-2.4328 0.06566,0 0.11939,-0.11638 0.11939,-0.25862 v -0.25862 h -0.24805 c -0.13643,0 -0.34009,-0.03532 -0.45259,-0.07849 l -0.20454,-0.07849 v -0.63124 l 0.34553,-0.32022 c 0.42165,-0.39077 0.80445,-0.49654 1.4726,-0.40692 l 0.50944,0.06833 v -0.61548 l -0.35561,0.05601 c -0.19558,0.03081 -0.56792,0.08907 -0.82741,0.12948 -0.25949,0.04041 -0.62624,0.19495 -0.81501,0.34343 -0.18876,0.14848 -0.37031,0.24286 -0.40344,0.20973 -0.09764,-0.09764 1.1328,-1.0049 1.4816,-1.0925 0.17596,-0.04416 0.44046,-0.22043 0.58779,-0.39171 l 0.26786,-0.31141 1.0806,-0.14494 0.83064,0.28956 0.33608,-0.45191 -0.14154,-0.57949 0.20872,-0.08009 c 0.26041,-0.09993 2.686,0.17773 2.8325,0.32424 0.05917,0.05917 0.12344,0.21565 0.14283,0.34775 l 0.03525,0.24017 0.29916,0.07062 c 0.16454,0.03884 0.33913,0.15658 0.38799,0.26165 0.04886,0.10506 0.15789,0.30741 0.24229,0.44965 0.0844,0.14224 0.18851,0.36375 0.23135,0.49223 l 0.0779,0.23361 0.1644,-0.06309 c 0.09042,-0.0347 0.26593,0.01115 0.39001,0.10188 l 0.2256,0.16497 -0.17092,0.681 0.32842,0.08243 c 0.18063,0.04534 0.38914,0.19587 0.46334,0.33453 l 0.13492,0.2521 0.18738,-0.15551 0.18738,-0.15551 0.25699,0.23257 c 0.34536,0.31255 0.46844,0.14961 0.28021,-0.37095 -0.35678,-0.98665 -0.15565,-1.46 0.6778,-1.5953 l 0.46706,-0.07579 0.24755,0.22403 c 0.13615,0.12322 0.30993,0.18548 0.38617,0.13836 0.23054,-0.14248 0.63465,0.05561 0.73014,0.3579 0.0494,0.15639 0.19785,0.36038 0.32989,0.45331 l 0.24007,0.16897 v 0.73963 l -0.6782,0.49403 0.09332,0.29403 0.09332,0.29403 0.14233,-0.14233 c 0.07828,-0.07828 0.26907,-0.14233 0.42397,-0.14233 h 0.28164 l 0.41948,0.5819 0.20974,-0.29095 c 0.29711,-0.41215 0.51913,-0.36438 1.0488,0.22563 l 0.46375,0.51658 0.3953,-0.56437 -0.18594,-0.06121 c -0.10227,-0.03367 -0.37506,-0.24971 -0.6062,-0.48009 l -0.42026,-0.41888 v -0.33796 c 0,-0.18588 0.06888,-0.44825 0.15306,-0.58305 l 0.15304,-0.24509 -0.41168,-0.46888 c -0.50369,-0.57367 -0.51265,-0.76483 -0.05607,-1.1959 l 0.35561,-0.33573 -0.61282,0.08062 c -0.33705,0.04434 -0.75893,0.02507 -0.93751,-0.04283 l -0.32468,-0.12344 v -0.25727 c 0,-0.1415 0.11987,-0.32142 0.26637,-0.39983 l 0.26637,-0.14256 -0.08016,-0.69161 -0.43393,-0.08224 -0.04166,0.36329 -0.04166,0.36329 -0.93633,0.07827 -0.80953,-0.80953 -0.16014,-0.94979 -0.53396,-0.26723 c -0.29368,-0.14698 -0.6212,-0.42266 -0.72783,-0.61263 l -0.19387,-0.3454 0.32868,-0.52631 -0.19576,-0.07512 c -0.10766,-0.04131 -0.49082,0.03099 -0.85147,0.16067 l -0.65571,0.23579 -0.60622,-0.23221 c -0.33342,-0.12771 -0.95536,-0.34916 -1.3821,-0.49209 l -0.77587,-0.25988 -2.7155,0.1119 -1.875,0.54497 c -2.0755,0.60325 -3.4775,1.2311 -4.2263,1.8926 l -0.4936,0.43609 0.23602,0.0054 c 0.12981,0.003 0.64158,-0.23556 1.1373,-0.53004 l 0.90124,-0.53542 0.51756,0.55554 0.34966,-0.08398 c 0.43093,-0.10349 1.1584,-0.46299 1.7519,-0.86572 l 0.44742,-0.30363 4.7136,-0.17074 0.7917,0.33624 c 0.43543,0.18493 0.92263,0.38728 1.0826,0.44966 0.40333,0.15723 0.36347,0.34111 -0.09581,0.44198 l -0.38676,0.08495 -0.72801,-0.3333 c -0.4004,-0.18332 -0.89982,-0.3333 -1.1098,-0.3333 h -0.38179 l 0.08626,0.45259 0.32196,0.04472 c 0.56269,0.07815 0.84948,0.46693 0.45586,0.61797 -0.10416,0.03997 -0.37326,-0.05826 -0.598,-0.21829 l -0.40862,-0.29096 -1.7135,0.55116 -0.57894,-0.15208 -0.45857,0.40263 c -0.49926,0.43835 -0.7084,0.48545 -1.092,0.24591 l -0.25094,-0.15672 -0.5555,0.3952 c -0.30553,0.21736 -0.92072,0.88433 -1.3671,1.4822 -1.9828,2.6556 -2.3638,3.0269 -3.4351,3.3478 l -0.4978,0.14914 -0.24629,-0.22289 c -0.3475,-0.31448 -0.31192,-0.41054 0.23704,-0.63991 0.99876,-0.41731 1.739,-1.0269 3.0776,-2.5345 0.75801,-0.8537 1.3527,-1.5777 1.3216,-1.6088 -0.12188,-0.12188 -1.1312,0.73908 -2.0377,1.7381 -1.0521,1.1595 -1.7416,1.6985 -2.1729,1.6985 h -0.284 v -0.17372 c 0,-0.09555 0.29095,-0.41906 0.64656,-0.71891 0.5771,-0.48662 0.83143,-0.91772 0.54141,-0.91772 -0.1546,0 -1.672,0.92187 -3.5412999,2.1515 l -1.6422,1.0802 -0.78242,0.90908 c -0.91489,1.063 -0.93407,1.1307 -0.31488,1.1112 l 0.46754,-0.01475 0.2851,0.44156 -0.13975,0.49043 c -0.07686,0.26974 -0.30006,1.0141 -0.49599,1.6542 l -0.35625,1.1638 -0.1266,3.4914 0.12402,0.45259 0.12402,0.45259 0.08475,-1.2931 c 0.22063,-3.3662 0.96048,-4.9355 2.7985,-5.9359 l 0.6720699,-0.36579 0.81493,0.23267 0.04133,0.28673 0.04133,0.28673 -0.52975,0.95968 c -0.5989799,1.0851 -0.9705999,2.0827 -1.0901999,2.9267 l -0.08147,0.57471 0.37108,-0.92072 c 0.6937799,-1.7214 1.6601999,-2.894 2.3852999,-2.894 h 0.32181 l 0.07849,0.20454 c 0.16032,0.41779 0.06301,0.74614 -0.56807,1.9168 -0.71824,1.3323 -0.78413,1.544 -0.35561,1.1426 0.6823,-0.63915 1.4014,-0.63441 1.7354,0.01144 l 0.20564,0.39766 0.3819,-0.9575 h 0.50342 c 0.27688,0 0.54072,-0.01455 0.58631,-0.03233 0.08931,-0.03483 0.15653,0.08296 0.48886,0.85654 0.23055,0.53665 0.16084,0.80905 -0.11166,0.43638 -0.17765,-0.24296 -0.46009,-0.30546 -0.46009,-0.10182 0,0.06835 -0.12026,0.23631 -0.26724,0.37324 l -0.26724,0.24897 0.09268,0.49961 0.09269,0.49961 0.82111,0.80712 c 0.8409,0.82657 1.1382,1.3577 0.42326,0.75611 -0.58689,-0.49383 -1.0317,-0.42883 -1.356,0.19814 -0.10588,0.20474 -0.27068,0.37226 -0.36623,0.37226 h -0.17373 l -0.07718,-0.47563 c -0.04245,-0.2616 -0.04242,-0.8082 6e-5,-1.2147 0.04248,-0.40647 0.03269,-0.96346 -0.02177,-1.2377 l -0.09901,-0.49871 -0.09906,0.34928 c -0.05448,0.1921 -0.13998,0.94962 -0.18999,1.6834 l -0.09093,1.3341 0.15248,1.0059 c 0.56019,3.6956 3.9275,7.9842 7.9662,10.146 l 0.26758,0.1432 -0.0094,-0.28325 -0.0094,-0.28325 0.67313,-0.07816 1.6031,0.63245 c 3.2859,1.2963 7.0294,2.3496 8.3673,2.3542 l 0.29858,10e-4 -0.07454,-0.12061 c -0.041,-0.06634 -0.40812,-0.18765 -0.81583,-0.26958 -4.7412,-0.9528 -9.8849,-2.8404 -12.442,-4.5659 -3.228,-2.1782 -5.6589,-6.4216 -4.7195,-8.2382 l 0.19632,-0.37964 0.60512,-0.15188 0.92087,0.38476 0.56761,0.7232 c 0.31219,0.39776 0.93398,1.4246 1.3818,2.2818 l 0.81414,1.5586 0.47178,-0.42696 0.29834,0.09469 c 0.45474,0.14433 1.1873,0.77981 2.0667,1.7927 0.43739,0.50384 0.90566,0.99395 1.0406,1.0891 l 0.24532,0.17306 -0.39376,-0.63995 c -0.43613,-0.7088 -0.50166,-1.16 -0.18607,-1.2811 l 0.20769,-0.0797 0.53585,0.2665 c 0.29472,0.14657 1.1197,0.78071 1.8333,1.4092 1.4494,1.2765 2.1382,1.8306 2.7112,2.1809 l 0.38793,0.23719 -0.53126,-0.57304 c -0.77254,-0.83329 -1.3153,-1.6915 -1.4952,-2.364 l -0.15772,-0.58971 0.23928,-0.2644 0.23928,-0.2644 h 0.95832 l 0.44431,0.30152 c 0.24437,0.16584 1.0526,0.90897 1.7961,1.6514 l 1.3518,1.3499 1.2931,0.66086 c 1.2702,0.64914 2.6912,1.1656 4.0481,1.4714 l 0.68597,0.15456 -0.07882,0.51874 -1.6633,1.0038 h -0.72899 v 0.36788 l -0.48492,0.15602 c -0.45214,0.14547 -0.99752,0.39323 -1.4548,0.66088 -0.53268,0.31181 -1.1039,0.50886 -2.1498,0.74157 -0.63123,0.14045 -1.5259,0.34917 -1.9882,0.4638 l -0.84052,0.20844 -2.263,0.04794 c -1.2446,0.02637 -2.4375,0.02263 -2.6509,-0.0083 z m 6.7587,-0.85366 c -0.02844,-0.08532 -0.5236,-0.2585 -1.1004,-0.38486 -0.57675,-0.12636 -1.5887,-0.4034 -2.2487,-0.61565 -1.4498,-0.46624 -1.6435,-0.43525 -0.34332,0.05492 1.9787,0.74598 3.7795,1.2071 3.6923,0.94558 z m -1.7657,-11.132 -0.14386,-0.14386 v 0.19828 c 0,0.10905 0.04243,0.24071 0.09429,0.29257 0.05186,0.05186 0.1166,0.02737 0.14386,-0.05442 0.02726,-0.08179 -0.01517,-0.21345 -0.09429,-0.29257 z m -0.79042,-0.35839 c 0,-0.06692 -0.05819,-0.12168 -0.12931,-0.12168 -0.07112,0 -0.12931,0.09072 -0.12931,0.2016 0,0.11088 0.05819,0.16564 0.12931,0.12168 0.07112,-0.04395 0.12931,-0.13468 0.12931,-0.2016 z m 12.802,-0.18634 0.16098,-0.19397 h -0.54891 v 0.19397 c 0,0.10668 0.0511,0.19397 0.11348,0.19397 0.0624,0 0.18592,-0.08728 0.27445,-0.19397 z m -4.4415,-3.8842 c 0.09949,-0.25926 0.86328,-0.57558 1.186,-0.49118 l 0.25214,0.06594 0.19964,-0.32304 -0.2792,-0.22608 c -0.38447,-0.31132 -0.35291,-0.48617 0.18771,-1.0398 l 0.46691,-0.47816 -0.49516,-0.265 -0.187,0.11831 c -0.31361,0.19841 -0.61764,0.1365 -0.70664,-0.14389 l -0.08448,-0.26616 -0.26972,0.03986 c -0.14834,0.02193 -0.29367,0.1126 -0.32295,0.20151 l -0.05323,0.16164 h 0.2088 c 0.27983,0 0.39756,0.34468 0.19932,0.58355 -0.08779,0.10578 -0.32706,0.19232 -0.53171,0.19232 -0.44643,0 -0.46432,0.07784 -0.08794,0.38261 l 0.28416,0.2301 -0.15485,0.51684 c -0.23485,0.78387 -0.07295,1.4211 0.18817,0.74064 z m -19.11,-6.4403 c 0.07921,-0.09545 0.10974,-0.20782 0.06785,-0.24971 -0.12495,-0.12495 -0.43883,0.04895 -0.43883,0.24312 0,0.22853 0.18407,0.23181 0.37098,0.0066 z m 15.865,-1.303 c 0.13794,-0.10087 0.21412,-0.22008 0.16929,-0.26492 -0.13989,-0.13989 -0.7586,0.07898 -0.7586,0.26836 0,0.23167 0.26992,0.2301 0.58931,-0.0034 z m 0.65195,-0.62854 c 0.01478,-0.08684 0.06781,-0.25973 0.11785,-0.38419 l 0.09099,-0.2263 h -0.13257 c -0.07291,0 -0.23138,-0.03792 -0.35216,-0.08426 l -0.21959,-0.08426 0.15034,0.2809 c 0.08268,0.1545 0.11511,0.33789 0.07207,0.40754 -0.09246,0.1496 0.0572,0.43747 0.16921,0.32547 0.04235,-0.04235 0.08909,-0.14806 0.10387,-0.2349 z m 2.9614,20.093 c -1.6561,-0.5023 -3.3029,-1.4209 -4.5259,-2.5245 -0.94456,-0.85235 -0.86759,-1.0021 0.26721,-0.51979 l 0.85894,0.36505 0.53468,0.6341 c 0.47692,0.5656 1.4125,1.2553 1.7029,1.2553 0.05949,0 -0.02315,-0.13978 -0.18365,-0.31062 l -0.29182,-0.31062 0.08596,-0.60721 1.0345,-0.1334 -0.2993,-0.16861 -0.2993,-0.16861 0.14879,-0.17928 c 0.2016,-0.24291 0.06571,-0.42165 -0.42941,-0.56484 l -0.4139,-0.1197 0.79544,-0.02332 0.31349,-0.33886 c 0.17242,-0.18638 0.5526,-0.44265 0.84485,-0.5695 l 0.53136,-0.23064 0.30916,-0.49732 0.30916,-0.49732 0.04172,0.36396 c 0.0561,0.48934 -0.25951,0.93473 -0.89044,1.2566 -0.57775,0.29474 -0.70324,0.49559 -0.59045,0.94499 0.08852,0.3527 1.1262,1.5077 1.3545,1.5077 h 0.15592 l -0.19729,-0.38151 c -0.65997,-1.2762 0.20148,-1.7992 1.8308,-1.1114 0.41364,0.1746 0.99937,0.38051 1.3016,0.45757 0.30226,0.07707 0.54957,0.20893 0.54957,0.29303 0,0.23962 -1.4533,1.6475 -1.7006,1.6475 -0.1219,0 -0.25763,0.1134 -0.30162,0.25201 -0.09403,0.29625 -0.25793,0.35259 -1.2952,0.44523 l -0.77587,0.06929 z m 0.06466,-0.40189 c -0.25324,-0.16366 -0.42442,-0.16366 -0.32328,0 0.04395,0.07112 0.17832,0.12842 0.29858,0.12733 l 0.21866,-0.002 z m -0.64656,-0.25862 c -0.25324,-0.16366 -0.42442,-0.16366 -0.32328,0 0.04396,0.07112 0.17832,0.12842 0.29858,0.12733 l 0.21866,-0.002 z m 9.138,-8.7501 c -0.0474,-0.04741 -0.0862,-0.19751 -0.0862,-0.33355 v -0.24734 l -0.77587,0.1704 v -0.90726 l 0.2032,-0.2032 c 0.11177,-0.11176 0.36635,-0.2032 0.56574,-0.2032 0.19939,0 0.54438,-0.03637 0.76663,-0.08082 l 0.4041,-0.08082 v 0.33102 c 0,0.79987 -0.75016,1.8822 -1.0776,1.5548 z m -31.121,-8.6523 c 0,-0.48367 -0.32438,-0.95982 -0.65389,-0.95982 -0.36975,0 0.04436,-0.91954 0.49225,-1.0931 0.64067,-0.24821 0.8598,1.6383 0.2689,2.3151 l -0.10726,0.12285 z m -5.6896999,-0.39034 c 0,-0.35471 0.47305,-1.5534 0.78058,-1.9779 l 0.38084,-0.52573 0.3568,-0.07381 c 0.19624,-0.04059 0.57676,-0.13901 0.8456,-0.21871 l 0.4887999,-0.1449 0.15129,0.15129 c 0.08321,0.08321 0.3352,0.15129 0.55997,0.15129 h 0.40868 l 0.47638,-0.32328 c 0.69601,-0.47233 0.94679,-0.33554 0.59385,0.32393 l -0.12966,0.24227 0.12699,0.07848 c 0.06984,0.04317 0.24457,0.01556 0.38828,-0.06136 0.42118,-0.22541 0.3063,-0.0095 -0.41759,0.7847 -0.37339,0.40967 -0.80772,0.90955 -0.96518,1.1108 l -0.2863,0.36598 -0.0066,-0.45259 c -0.0085,-0.5812 -0.12567,-0.75503 -0.6007,-0.89126 l -0.38587,-0.11067 -0.7826799,0.35528 c -0.43047,0.19541 -1.0163,0.56632 -1.3018,0.82424 -0.49958,0.45134 -0.6817,0.55603 -0.6817,0.39188 z m 19.2859999,-8.2416 c -0.20346,-0.24516 -0.24013,-0.75932 -0.05876,-0.82389 0.08437,-0.03004 0.25079,0.09403 0.36982,0.2757 0.32487,0.49582 0.04898,0.98202 -0.31106,0.5482 z m -1.3076,-1.3746 c -0.10462,-0.06616 -0.15265,-0.15787 -0.10673,-0.20379 0.11306,-0.11306 0.62023,0.05658 0.62023,0.20746 0,0.15387 -0.26743,0.15196 -0.5135,-0.0037 z"
       fill="#9edfe9"
       id="path13"
       style="stroke-width:0.12931" /><path
       d="m 23.049432,46.371426 c -0.1778,-0.02513 -0.80763,-0.11116 -1.3996,-0.19117 l -1.0763,-0.14548 -0.12814,-0.28123 -0.12814,-0.28124 -1.0517,-0.16548 c -1.3977,-0.21993 -2.6355,-0.79417 -1.7118,-0.79417 0.27009,0 0.24379,-0.35578 -0.03233,-0.43739 -0.12446,-0.03679 -0.66272,-0.10358 -1.1961,-0.14844 -0.53341,-0.04485 -1.2608,-0.16198 -1.6164,-0.26028 l -0.64656,-0.17873 -0.41469,-0.38038 c -0.22808,-0.20921 -0.45032,-0.54598 -0.49386,-0.74837 -0.04355,-0.20239 -0.13503,-0.50537 -0.20331,-0.67329 l -0.12413,-0.3053 -0.35184,0.06898 c -0.19351,0.03794 -0.62066,0.0121 -0.94921,-0.0574 l -0.59737,-0.12638 -1.1610999,-1.189 c -3.5969,-3.6834 -5.5624,-8.0147 -5.9774,-13.172 l -0.12143,-1.5091 0.13621,-0.49521 c 0.19143,-0.69598 0.57094,-1.419 1.1566,-2.2035 l 0.50304,-0.6738 0.49025,-0.14688 c 0.26964,-0.08079 0.63317,-0.12669 0.80785,-0.10201 l 0.3176,0.04488 -0.02315,0.1939 c -0.01273,0.10665 -0.2388,1.0086 -0.50236,2.0043 l -0.47921,1.8104 -0.0036,1.6164 -0.0036,1.6164 0.20749,0.76193 c 0.11412,0.41906 0.26905,0.82348 0.34428,0.89872 l 0.13679,0.13678 0.0022,-1.9332 0.0022,-1.9332 0.1821,-0.85914 c 0.30141,-1.422 1.0041,-2.5003 2.1927,-3.3647 l 0.50432,-0.36674 h 1.0037999 l 0.07355,0.19166 0.07355,0.19167 -0.52729,0.96074 c -0.6623399,1.2068 -1.1317999,2.6067 -1.2471999,3.7184 l -0.08918,0.8599 0.23907,0.42719 0.22194,-1.0328 c 0.27543,-1.2817 0.9760899,-2.7071 1.7042999,-3.4671 l 0.55352,-0.57769 0.60598,0.0858 0.07774,0.54448 -0.63889,1.2148 c -0.82281,1.5646 -1.2882,3.0899 -0.94274,3.0899 0.06188,0 0.18736,-0.26737 0.27886,-0.59415 l 0.16635,-0.59415 0.84727,-0.89837 0.85206,0.08234 0.16964,0.32328 0.16964,0.32328 -0.15798,4.3966 0.19246,0.97838 c 1.0529,5.3521 7.8235,11.223 15.053,13.052 0.30227,0.07648 0.54957,0.19038 0.54957,0.25311 0,0.33597 -4.2724,0.66022 -5.819,0.44163 z m 6.8404,-0.86141 c -0.17061,-0.06696 -0.80481,-0.23441 -1.4093,-0.37212 -2.5028,-0.57011 -5.8556,-1.9719 -6.5925,-2.7563 l -0.29978,-0.3191 0.45038,-0.17282 1.055,0.42004 c 0.58023,0.23102 2.0264,0.75471 3.2136,1.1637 l 2.1587,0.74371 1.8177,0.37241 c 2.1805,0.44675 2.2952,0.65896 0.51146,0.94633 l -0.59498,0.09586 z m 2.3695,-1.2184 -0.29445,-0.0565 0.07166,-0.41148 -0.64656,-0.17025 c -0.80681,-0.21245 -1.321,-0.22102 -1.3869,-0.02313 l -0.0507,0.1521 -1.4795,-0.35852 c -7.8361,-1.8989 -12.721,-5.3832 -13.896,-9.913 l -0.21552,-0.83018 0.06534,-0.48999 c 0.03594,-0.2695 0.13589,-0.57499 0.22211,-0.67889 l 0.15677,-0.1889 h 0.92353 l 1.3101,1.3578 0.94348,1.8427 c 0.86316,1.6858 1.1878,2.1408 1.1878,1.6646 0,-0.09797 0.08564,-0.24921 0.19032,-0.33608 l 0.19032,-0.15795 0.44178,0.27304 c 0.24298,0.15017 1.0156,0.89347 1.717,1.6518 1.2336,1.3337 2.8145,2.756 3.0633,2.756 0.06672,0 -0.30829,-0.45097 -0.83336,-1.0022 -0.52506,-0.55119 -1.0991,-1.2767 -1.2756,-1.6123 l -0.32089,-0.61015 0.32311,-0.32311 0.46149,0.24853 c 0.25382,0.13669 0.89636,0.62944 1.4279,1.095 3.1349,2.7458 5.252,4.091 8.3765,5.322 l 1.4126,0.55654 -0.75623,0.31204 -0.4179,-0.25654 c -0.43333,-0.26601 -0.75021,-0.21667 -0.62946,0.098 0.03818,0.09949 0.05669,0.17296 0.04114,0.16328 -0.01555,-0.0097 -0.16077,-0.04303 -0.32272,-0.07411 z m 1.4583,-0.88952 c -2.0336,-0.55169 -4.2733,-1.7554 -5.711,-3.0694 l -0.70812,-0.64718 -0.4435,-0.88066 c -0.68585,-1.3619 -0.59503,-1.898 0.29332,-1.7314 l 0.46141,0.08656 1.1916,1.1635 c 2.1044,2.0547 6.0024,4.1201 7.7755,4.1201 0.40936,0 0.13048,0.39899 -0.58096,0.83116 -0.88674,0.53867 -0.78324,0.53289 -2.2784,0.12728 z m 3.4914,-1.8042 c -0.97725,-0.20344 -2.5096,-0.79969 -2.8305,-1.1014 l -0.24426,-0.22964 0.07857,-0.20474 c 0.11998,-0.31268 0.41021,-0.25395 1.8237,0.36904 0.716,0.31558 1.52,0.66175 1.7867,0.76927 0.93467,0.37682 0.53354,0.63638 -0.61423,0.39745 z m 0.6716,-0.83263 c -1.9962,-1.266 -1.3344,-2.5622 0.85958,-1.6837 0.53285,0.21336 1.0575,0.38794 1.166,0.38794 0.10841,0 0.23659,0.06387 0.28484,0.14194 l 0.0877,0.14194 -0.6899,0.69858 c -0.80052,0.81059 -0.89637,0.82817 -1.7082,0.31332 z m -7.2121,-3.1075 c -0.75034,-0.127 -1.6196,-0.56668 -1.8049,-0.91294 l -0.14282,-0.26687 0.41421,-0.63216 0.63866,0.1603 v -0.1275 c 0,-0.07012 -0.08838,-0.20084 -0.19639,-0.29049 l -0.19639,-0.16299 -0.49088,0.44424 -0.2385,-0.12764 c -0.3994,-0.21375 -0.66432,-0.5841 -0.70971,-0.99212 l -0.04315,-0.38794 -0.61801,-0.08738 0.09934,0.30231 c 0.05464,0.16627 0.1064,0.50598 0.11504,0.7549 l 0.0157,0.45259 -0.51725,-0.01456 c -0.28448,-0.008 -0.64817,-0.05844 -0.8082,-0.11206 l -0.29095,-0.09751 v 0.54248 l -0.65793,0.16512 -0.80251,-0.22294 c -3.0906,-0.85858 -6.1746,-3.3855 -7.712,-6.319 l -0.39658,-0.75667 v -0.4136 c 0,-0.7167 0.53356,-0.98412 0.7994,-0.40066 l 0.1473,0.32328 h 0.23787 c 0.28886,0 0.2938,-0.05305 0.04087,-0.43907 l -0.197,-0.30066 0.47454,-0.58603 0.27713,0.17307 c 0.33712,0.21053 0.52019,0.07363 0.28328,-0.21183 l -0.17177,-0.20697 -0.43421,0.08146 c -0.23882,0.0448 -0.54172,0.04733 -0.67313,0.0056 l -0.23892,-0.07583 -0.06042,-0.35135 c -0.03323,-0.19324 -0.10246,-0.44925 -0.15384,-0.56891 l -0.09342,-0.21755 0.82297,-0.42558 -0.2697,-0.28709 c -0.14834,-0.1579 -0.30353,-0.48796 -0.34487,-0.73346 -0.15352,-0.91169 -0.1933,-1.0127 -0.42814,-1.0872 -0.13206,-0.04191 -0.33559,-0.03957 -0.45229,0.0052 l -0.21218,0.08143 v 0.64767 l 0.90518,-0.16982 v 0.32914 c 0,1.1043 -1.4324,1.1364 -1.8724,0.04196 -0.69291,-1.7236 0.40506,-4.7603 1.5608,-4.3168 l 0.1823,0.06995 v 0.39199 c 0,0.45863 0.18617,0.51038 0.39983,0.11114 l 0.15031,-0.28086 -0.38768,-0.33337 c -0.21322,-0.18335 -0.41929,-0.42693 -0.45792,-0.54128 -0.03864,-0.11435 -0.25395,-0.24465 -0.47847,-0.28955 l -0.40822,-0.08165 0.0415,-0.2879 0.04151,-0.2879 0.87877,-0.59079 h 0.83206 l 0.68144,0.53602 v 0.64934 l 0.16164,-0.05382 c 0.27053,-0.09008 0.26013,-0.46583 -0.02286,-0.8256 -0.14746,-0.18739 -0.2681,-0.4836 -0.2681,-0.65819 v -0.31744 l -0.54859,-0.44422 0.2138,-0.2138 c 0.11759,-0.11759 0.42671,-0.25374 0.68694,-0.30256 l 0.47314,-0.08876 0.3309,0.13243 c 0.182,0.07284 0.42509,0.17197 0.5402,0.22031 l 0.2093,0.08788 0.13908,-0.53187 h 0.33538 c 0.41257,0 0.42977,-0.16363 0.04443,-0.42268 -0.47281,-0.31787 -0.20386,-0.37144 1.0823,-0.21557 1.4464,0.17529 1.4442,0.17424 1.3399,0.64933 l -0.08223,0.37439 0.74571,-0.14914 0.16886,0.20347 c 0.09287,0.11191 0.13542,0.29061 0.09455,0.39711 l -0.07431,0.19364 0.52004,0.27832 -0.17034,0.53671 0.71529,-0.17952 0.10023,0.16217 c 0.14538,0.23522 -0.10717,0.6287 -0.40352,0.6287 -0.57346,0 -0.20265,0.24807 0.42481,0.28419 l 0.67888,0.03909 0.04132,0.29095 c 0.04696,0.33065 0.0753,0.34144 0.41679,0.15868 l 0.24714,-0.13227 0.24447,0.15267 c 0.13446,0.08397 0.34607,0.11369 0.47024,0.06604 l 0.22577,-0.08663 -0.08811,-0.28938 c -0.04846,-0.15916 -0.14488,-0.51754 -0.21426,-0.79639 l -0.12614,-0.50701 0.16725,-0.15582 c 0.24115,-0.22466 0.78442,-0.32597 1.0078,-0.18793 l 0.19181,0.11855 -0.16056,0.16056 c -0.08831,0.08831 -0.16056,0.20711 -0.16056,0.26401 0,0.17917 0.47831,0.1122 0.64656,-0.09052 0.08854,-0.10668 0.27023,-0.19397 0.40377,-0.19397 h 0.24279 v 0.58523 l 0.2902,0.12765 c 0.52859,0.23251 0.38986,0.96817 -0.18258,0.96817 h -0.24865 l 0.08895,0.48492 c 0.04892,0.2667 0.24965,0.66971 0.44607,0.89558 0.19641,0.22586 0.39565,0.58614 0.44276,0.80061 l 0.08565,0.38996 -0.14088,0.26324 c -0.07749,0.14478 -0.25729,0.32554 -0.39956,0.40168 l -0.25868,0.13844 0.19698,0.28123 c 0.10834,0.15468 0.19698,0.38332 0.19698,0.5081 0,0.12478 0.14548,0.32219 0.32328,0.43869 l 0.32328,0.21182 v 0.60771 l 0.24926,0.1334 c 0.13709,0.07337 0.33969,0.09869 0.45022,0.05628 l 0.20097,-0.07712 -0.27913,-0.52157 0.4002,-0.4002 0.18083,0.15007 0.18083,0.15008 0.23364,-0.25817 c 0.27514,-0.30402 0.7808,-0.34063 0.88687,-0.0642 0.04094,0.10668 0.14459,0.19397 0.23034,0.19397 h 0.15591 l -0.265,-0.29095 c -0.67008,-0.73569 -0.66549,-0.98866 0.02387,-1.3158 l 0.45468,-0.21576 v -0.31723 c 0,-0.38828 0.04016,-0.39086 0.52337,-0.03362 l 0.38358,0.2836 0.28254,-0.28254 -0.16476,-0.5191 -0.51498,-0.20606 c -0.28324,-0.11333 -0.63019,-0.20606 -0.77099,-0.20606 -0.27756,0 -0.35131,-0.2053 -0.10343,-0.28793 l 0.15258,-0.05086 -0.08621,-0.22467 c -0.04742,-0.12357 -0.25771,-0.28446 -0.46732,-0.35753 -0.39733,-0.13851 -0.78611,-0.60808 -0.78611,-0.94948 0,-0.22094 0.32783,-0.27107 0.45259,-0.06921 0.12095,0.1957 0.45259,0.15478 0.45259,-0.05584 0,-0.10184 -0.32005,-0.52091 -0.71121,-0.93128 -0.73652,-0.77267 -0.85218,-1.0359 -0.51243,-1.1663 l 0.19878,-0.07628 0.23197,0.20993 c 0.48122,0.4355 0.54925,-0.11441 0.07718,-0.62379 l -0.32778,-0.35368 -1.2195,0.15718 -0.38793,-0.25618 0.5819,-0.40989 v -0.85883 l -0.38458,-0.31917 -0.64992,0.16312 v 0.24853 c 0,0.32446 -0.19724,0.43655 -0.59326,0.33715 l -0.31994,-0.0803 -0.25413,-0.41679 c -0.32619,-0.53497 -0.32092,-0.59213 0.06818,-0.74007 0.55574,-0.21129 0.12643,-0.76568 -0.45101,-0.5824 l -0.24728,0.07848 -0.39056,-0.20197 c -0.21481,-0.11108 -0.45064,-0.31422 -0.52406,-0.4514 l -0.13349,-0.24944 0.16199,-0.1016 c 0.08909,-0.05588 0.26896,-0.08398 0.3997,-0.06244 l 0.23772,0.03916 -0.09102,-0.47272 -1.031,-0.34124 -1.4808,0.44494 -2.1399,-0.85345 -2.5862,-0.11342 -1.7457,0.45214 c -1.7143,0.444 -4.5118,1.4183 -4.6497,1.6194 -0.03857,0.05622 -0.44836,0.32726 -0.91065,0.60232 -0.46229,0.27505 -1.1559,0.7027 -1.5415,0.95032 -0.38552,0.24762 -0.77574,0.45022 -0.86716,0.45022 -0.09142,0 -0.14033,0.0419 -0.10868,0.09311 0.03165,0.05121 -0.02655,0.1629 -0.1293399,0.2482 l -0.18688,0.1551 -0.30991,-0.19154 0.16996,0.27501 -0.42061,0.33702 c -0.64414,0.51612 -0.64692,0.51887 -1.1726,1.1593 l -0.49337,0.60106 -0.14084,-0.08704 -0.14084,-0.08705 0.0761,0.12314 c 0.10089,0.16325 -0.11245,0.49718 -0.32238,0.5046 -0.0915,0.0032 -0.14977,0.0821 -0.12949,0.17525 0.05046,0.23185 -0.22917,0.54637 -0.39478,0.44403 l -0.13464,-0.08321 0.1787,0.28915 -0.29567,0.29567 c -0.16262,0.16262 -0.27886,0.34608 -0.25832,0.40769 0.02054,0.06162 -0.05476,0.25259 -0.16732,0.42438 l -0.20466,0.31235 -0.14361,-0.08875 -0.14361,-0.08876 0.19528,0.31598 -0.44939,0.73484 c -0.24717,0.40416 -0.55335,0.9385 -0.68041,1.1874 l -0.23102,0.45259 -0.25035,-0.74682 0.21409,-1.0896 c 0.5015,-2.5524 1.6237,-5.2161 3.2128,-7.6258 l 0.92314,-1.3999 3.2480999,-3.2425003 1.1971,-0.83566 c 3.1091,-2.1703 6.5913,-3.4238 10.473,-3.7702 l 1.7134,-0.15287 1.7134,0.15287 c 3.8427,0.34286 6.9339,1.4133 10.051,3.4806 l 1.4898,0.98799 1.6936,1.6899003 1.6936,1.6899 0.93266,1.4086 c 1.7199,2.5975 2.8545,5.4283 3.3745,8.4191 0.33887,1.9491 0.30657,6.1086 -0.0512,6.5979 l -0.15741,0.21527 -0.89803,0.03231 c -1.1434,0.04113 -1.1906,0.02026 -1.3576,-0.59998 l -0.13915,-0.51677 0.2024,-0.22365 c 0.38671,-0.42731 0.0578,-0.79519 -0.46219,-0.51692 l -0.25793,0.13804 -0.34693,-0.2293 c -0.19082,-0.12611 -0.66698,-0.26969 -1.0582,-0.31905 -0.39122,-0.04936 -0.80705,-0.12881 -0.92419,-0.17655 l -0.21297,-0.0868 -0.61276,0.66084 -1.1596,-0.19864 -2.59e-4,-0.25298 c -6.46e-4,-0.67816 -0.66433,-0.26576 -0.73274,0.4553 l -0.04287,0.45207 -1.4224,-0.0902 -0.20821,-0.18487 -0.20821,-0.18487 -0.32373,0.12308 c -0.50585,0.19232 -0.62491,0.78945 -0.1574,0.78945 0.39352,0 0.16278,0.25067 -0.29858,0.32438 -0.5694,0.09097 -0.83801,0.21766 -0.90826,0.4284 l -0.0508,0.1524 h 0.31822 c 0.17502,0 0.39384,0.09112 0.48627,0.20248 l 0.16804,0.20248 -0.15221,0.42093 c -0.08371,0.23151 -0.15221,0.60387 -0.15221,0.82746 v 0.40653 l 0.50842,0.2721 0.21325,-0.32547 c 0.23864,-0.36421 0.48471,-0.40011 0.95558,-0.13943 l 0.31948,0.17688 0.3827,-0.32203 0.38271,-0.32202 0.71738,0.10528 0.07654,-0.53294 0.72246,-0.3452 -0.079,-0.24887 c -0.10095,-0.31806 0.039,-0.76612 0.23932,-0.76612 0.0848,0 0.22683,0.11638 0.31566,0.25862 0.17447,0.27936 0.4811,0.34097 0.61542,0.12365 0.0459,-0.07424 0.0137,-0.21897 -0.0715,-0.32163 -0.0852,-0.10266 -0.12114,-0.27468 -0.0799,-0.38227 l 0.0751,-0.19561 h 0.90837 l 0.1692,0.67439 0.43508,0.18179 c 0.48562,0.20291 0.57036,0.50588 0.17645,0.63091 -0.14224,0.04515 -0.25862,0.16545 -0.25862,0.26734 v 0.18525 h 0.25862 c 0.14225,0 0.38166,0.12304 0.53204,0.27341 l 0.27341,0.27341 -0.1164,1.4036 -0.26368,0.35024 -0.26367,0.35024 h -1.1264 l -0.0411,0.20958 -0.0411,0.20958 0.52977,0.13854 v 0.547 l -0.35561,0.15272 c -0.49347,0.21193 -0.48747,0.1997 -0.23487,0.47881 l 0.22691,0.25073 -0.0888,0.40426 c -0.0488,0.22234 -0.28044,0.59591 -0.51467,0.83014 l -0.42588,0.42588 -0.58927,0.14838 c -0.32409,0.08161 -0.69963,0.14838 -0.83452,0.14838 h -0.24526 l -0.1473,-0.32328 c -0.08101,-0.1778 -0.23583,-0.32328 -0.34404,-0.32328 -0.10821,0 -0.19674,-0.08063 -0.19674,-0.17918 0,-0.53882 -0.66079,-1.2276 -1.1883,-1.2387 l -0.21849,-0.0046 -0.04013,-0.48384 -0.04013,-0.48384 -0.48705,-0.0924 0.08064,0.32128 0.08064,0.32128 -0.16039,0.13019 c -0.08821,0.07161 -0.2761,0.15167 -0.41753,0.17792 -0.14142,0.02625 -0.27662,0.14889 -0.30043,0.27254 l -0.0433,0.22481 h 0.3069 c 0.38785,0 0.61724,0.22587 0.61724,0.60776 v 0.29742 h -0.32328 c -0.36831,0 -0.41542,0.15049 -0.12307,0.39311 0.11011,0.09139 0.18285,0.28763 0.16164,0.4361 l -0.03857,0.26994 -1.0991,-0.0821 v 0.17683 c 0,0.09726 0.06845,0.24528 0.15212,0.32895 l 0.15212,0.15212 -0.24197,0.26737 -0.24197,0.26737 -0.53152,-0.07604 -0.12932,-0.90224 -0.45259,-0.08656 v 0.27216 c 0,0.37493 -0.28857,0.45138 -0.768,0.20346 -0.22187,-0.11473 -0.45869,-0.17444 -0.52627,-0.13267 l -0.12287,0.07593 0.31798,0.51315 -0.19397,0.12339 c -0.10668,0.06786 -0.22306,0.11743 -0.25862,0.11016 -0.03556,-0.0073 -0.33114,-0.05833 -0.65684,-0.11346 z m -3.5982,-3.6693 c -0.08825,-0.10633 -0.23898,-0.1632 -0.33496,-0.12636 -0.25813,0.09905 -0.35003,0.44149 -0.17506,0.65231 l 0.15323,0.18463 0.51725,-0.51724 z m 5.4835,0.12321 c 0.51197,-0.17971 0.98241,-0.40696 1.3578,-0.65588 0.10668,-0.07075 0.29467,-0.12863 0.41776,-0.12863 0.12309,0 0.21037,-0.05819 0.19397,-0.12931 -0.0164,-0.07112 -0.10256,-0.12123 -0.19146,-0.11135 -0.0889,0.0099 -0.16164,-0.08852 -0.16164,-0.21866 0,-0.13014 -0.06106,-0.27436 -0.1357,-0.32049 l -0.1357,-0.08387 0.33633,-0.3117 c 0.18498,-0.17143 0.37697,-0.31355 0.42665,-0.31581 0.04968,-0.0023 0.20079,-0.08773 0.3358,-0.18993 l 0.24548,-0.18581 -0.29626,-0.35697 -0.53823,0.49689 c -0.56914,0.52543 -2.8563,1.7155 -3.5716,1.8584 l -0.42368,0.08464 0.33016,0.25971 c 0.30061,0.23646 0.83575,0.45769 1.1638,0.48111 0.07112,0.0051 0.36207,-0.07247 0.64656,-0.17233 z m 7.3097,-0.03042 c 0.17585,-0.11866 0.34714,-0.2382 0.38064,-0.26565 0.10793,-0.08844 -0.31055,-0.29045 -0.60594,-0.29249 -0.30198,-0.0021 -0.55911,0.33924 -0.46122,0.61225 0.0791,0.22068 0.30577,0.20282 0.68652,-0.0541 z m -20.31,-16.912 c 0.08595,-0.10357 0.1164,-0.25283 0.06765,-0.3317 l -0.08862,-0.1434 -0.24579,0.22243 c -0.13518,0.12234 -0.24578,0.2716 -0.24578,0.3317 0,0.17766 0.34346,0.1247 0.51254,-0.07903 z m 22.246,19.714 c 0.25476,-0.16464 0.55434,-0.16464 0.45259,0 -0.044,0.07112 -0.20741,0.12842 -0.36324,0.12733 l -0.28332,-0.002 z m 3.388,-7.2673 c -0.22287,-0.22287 -0.19138,-0.36207 0.0819,-0.36207 0.30507,0 0.40928,0.10869 0.32209,0.33592 -0.0853,0.22215 -0.20053,0.22961 -0.40399,0.02615 z"
       fill="#57cbe1"
       id="path15"
       style="stroke-width:0.12931" /><path
       d="m 22.172432,46.191426 c -0.37562,-0.05475 -0.87837,-0.13621 -1.1172,-0.18102 l -0.43429,-0.08147 -0.06663,-0.25478 c -0.07786,-0.29772 -0.11208,-0.3104 -1.3843,-0.51295 -0.53341,-0.08492 -1.1018,-0.20655 -1.263,-0.27028 l -0.29315,-0.11588 0.1606,-0.25716 0.1606,-0.25716 -0.31301,-0.31301 -3.0141,-0.34379 -0.51184,-0.28767 c -0.51703,-0.29059 -0.87441,-0.7913 -0.87441,-1.2251 0,-0.12995 -0.09329,-0.36947 -0.20732,-0.53226 l -0.20732,-0.29598 -0.40691,0.02739 c -0.2238,0.01506 -0.60035,0.01893 -0.83678,0.0086 l -0.42986,-0.01879 -0.78094,-0.74354 c -3.8509999,-3.6667 -6.1403999,-8.6579 -6.4019999,-13.958 l -0.07781,-1.5761 0.63351,-0.73202 c 1.1399,-1.3172 1.4684,-1.6349 1.6341,-1.5804 l 0.16326,0.05369 0.04028,0.55013 c 0.02215,0.30257 -0.05495,0.96723 -0.17135,1.477 -0.43927,1.9239 -0.37695,4.1765 0.16034,5.7952 l 0.22936,0.69101 0.44813,0.0838 -0.15668,-3.1862 0.14857,-1.2019 c 0.22866,-1.8498 0.75161,-2.9174 1.8834,-3.8448 l 0.57654,-0.47243 1.0104999,-0.13554 0.08859,0.14335 c 0.04873,0.07884 -0.17171,0.62375 -0.48986,1.2109 -0.3181499,0.58716 -0.7122999,1.504 -0.8758999,2.0374 l -0.29744,0.96984 -0.0041,1.3141 c -0.0037,1.1865 0.07331,1.6258 0.25352,1.4456 0.03502,-0.03502 0.15126,-0.58298 0.2583,-1.2177 0.32931,-1.9527 1.3104999,-3.9605 2.1743999,-4.4496 l 0.33932,-0.19207 0.15999,0.15999 0.15999,0.15999 -1.5737,3.0454 -0.15257,0.73491 c -0.17729,0.85402 -0.13868,1.673 0.08229,1.7455 l 0.15398,0.05055 0.15236,-0.5578 c 0.49639,-1.8174 0.72913,-2.2239 1.3646,-2.3834 l 0.33064,-0.08299 0.43009,0.43009 0.0182,5.4871 0.21939,0.75701 c 1.076,3.7128 2.9828,5.9645 7.7449,9.1462 2.4538,1.6394 6.1859,3.3513 7.3063,3.3513 h 0.21629 l -0.12284,0.11354 c -0.36812,0.34023 -4.5249,0.52144 -6.2369,0.27189 z m 7.0192,-0.99358 c -0.42673,-0.10182 -1.4742,-0.38713 -2.3276,-0.634 l -1.5517,-0.44887 -1.4224,-0.70168 c -2.2847,-1.127 -2.8205,-1.7777 -0.80722,-0.9802 3.0227,1.1974 5.4916,1.9573 8.0487,2.4775 l 0.77587,0.15782 -0.38793,0.16901 c -0.48871,0.21291 -1.3295,0.19863 -2.3276,-0.03954 z m 4.0161,-1.2774 -0.25081,-0.1834 h 0.21105 c 0.11608,0 0.24941,0.06206 0.29629,0.13792 0.13706,0.22177 0.01432,0.24353 -0.25653,0.04548 z m -1.0455,-0.16012 c -0.06912,-0.06142 -0.76316,-0.27418 -1.5423,-0.47278 l -1.4166,-0.36109 -0.09778,0.29335 h -0.48542 c -0.603,0 -2.3629,-0.52776 -4.7301,-1.4185 -3.5686,-1.3427 -5.4292,-2.522 -7.1429,-4.5271 l -0.82651,-0.96706 -0.50858,-1.0373 c -0.27972,-0.57049 -0.60544,-1.4155 -0.72383,-1.8778 l -0.21525,-0.84052 0.09122,-0.48335 0.09122,-0.48335 0.25908,-0.13866 0.25908,-0.13866 0.95438,0.46814 0.48655,0.64656 c 0.2676,0.35561 0.92608,1.5049 1.4633,2.5539 1.0064,1.9653 1.2217,2.2241 1.2217,1.4686 v -0.43876 l 0.37026,-0.14208 0.55841,0.42875 c 0.30713,0.23581 0.95781,0.89813 1.446,1.4718 1.4319,1.6829 3.4421,3.2518 5.4774,4.275 1.2269,0.61678 1.1283,0.49584 -0.48726,-0.59771 l -1.4805,-1.0022 -0.98926,-0.989 c -0.5441,-0.54395 -1.1485,-1.2606 -1.343,-1.5926 l -0.35375,-0.60363 0.22857,-0.22843 0.40904,0.19815 c 0.22497,0.10898 0.98144,0.70416 1.681,1.3226 2.4001,2.1218 3.8797,3.1247 6.4445,4.3687 0.92458,0.44842 1.6131,0.81675 1.53,0.81851 -0.08308,0.0018 -0.2302,0.03356 -0.32692,0.07067 -0.09672,0.03712 -0.23241,0.01722 -0.30153,-0.0442 z m -8.5956,-2.6532 c 0,-0.02405 -0.45097,-0.39701 -1.0022,-0.82878 -0.55119,-0.43178 -1.3774,-1.1376 -1.836,-1.5686 -1.0032,-0.94268 -1.1198,-0.94132 -0.3497,0.0041 0.80588,0.9893 3.1878,2.7776 3.1878,2.3933 z m 10.28,2.1665 c -2.1543,-0.58348 -4.7038,-1.9963 -5.9856,-3.317 l -0.55449,-0.57132 -0.02741,-0.37297 -0.02742,-0.37297 0.46727,-0.09658 2.0293,1.1671 c 2.5971,1.4936 4.2148,2.2594 5.5529,2.6286 0.58684,0.16192 1.067,0.33311 1.067,0.38041 0,0.08593 -1.2036,0.89728 -1.3044,0.87936 -0.02933,-0.0052 -0.57705,-0.15132 -1.2171,-0.32468 z m 2.8372,-1.9776 c -1.7231,-0.49345 -2.6429,-1.0047 -2.2474,-1.2491 0.06925,-0.0428 0.77954,0.2097 1.5784,0.5611 0.79888,0.3514 1.598,0.70066 1.7758,0.77613 l 0.32328,0.13722 -0.32328,-5.18e-4 c -0.1778,-2.58e-4 -0.67588,-0.10144 -1.1068,-0.22485 z m 1.2879,-0.64344 c -0.74472,-0.5449 -0.97928,-0.85775 -1.0016,-1.3359 l -0.01999,-0.42878 0.69403,-0.08018 0.9882,0.3957 c 0.54351,0.21763 1.0711,0.39569 1.1724,0.39569 0.32315,0 0.19967,0.29773 -0.35997,0.86796 -0.64203,0.65418 -0.80452,0.67464 -1.4731,0.18546 z m -7.9077,-3.2362 c -1.0635,-0.36741 -1.4853,-0.90741 -1.0142,-1.2984 l 0.1816,-0.15071 0.34845,0.08745 0.34845,0.08746 -0.04513,-0.22966 c -0.02482,-0.12632 -0.14676,-0.29367 -0.27098,-0.3719 l -0.22585,-0.14223 -0.55393,0.34594 -0.30887,-0.1653 c -0.16988,-0.09092 -0.34042,-0.31465 -0.37899,-0.49719 -0.03856,-0.18254 -0.12303,-0.46282 -0.18771,-0.62284 l -0.11759,-0.29095 h -0.25497 c -0.14023,0 -0.30676,-0.09255 -0.37007,-0.20567 l -0.1151,-0.20567 -0.62318,0.08806 -0.04173,0.43642 -0.04172,0.43642 0.8964,-0.16816 0.1431,0.4105 c 0.19094,0.54773 0.18378,0.59966 -0.10394,0.75365 l -0.24704,0.13221 -0.54509,-0.19232 c -0.72283,-0.25504 -0.77119,-0.24683 -0.77119,0.13095 v 0.32328 l -0.48492,-0.0017 c -0.72014,-0.0026 -2.4996,-0.66757 -3.6856,-1.3774 l -1.0447,-0.62522 -1.1249,-1.0649 c -2.2421,-2.1225 -3.8103,-5.0774 -2.6946,-5.0774 h 0.24799 l 0.12291,0.32328 0.12291,0.32328 h 0.26588 c 0.14624,0 0.30021,-0.08945 0.34216,-0.19878 l 0.07628,-0.19878 -0.41722,-0.46102 0.34019,-0.46524 0.55646,0.34752 0.31069,-0.31069 -0.48873,-0.54004 -1.2057,0.16582 -0.07165,-0.36552 c -0.03941,-0.20104 -0.09031,-0.48188 -0.11312,-0.62408 l -0.04146,-0.25856 0.28002,-0.03995 c 0.15401,-0.02197 0.31282,-0.12544 0.35292,-0.22992 l 0.0729,-0.18998 -0.51187,-0.43827 -0.0019,-0.45618 c -0.0037,-0.87956 -0.50537,-1.3871 -1.1383,-1.1515 l -0.29963,0.11154 0.04101,0.35656 0.041,0.35656 0.84052,-0.03814 v 0.17013 c 0,0.3411 -0.17142,0.60163 -0.47074,0.71543 l -0.30616,0.1164 -0.63883,-0.29107 -0.22965,-0.595 -0.22965,-0.595 0.0091,-0.84288 0.0091,-0.84289 0.33431,-0.73023 0.33431,-0.73023 0.32909,-0.21563 c 0.181,-0.1186 0.43378,-0.1942 0.56174,-0.168 l 0.23265,0.04763 -0.0357,0.3413 c -0.01963,0.18771 0.02656,0.37977 0.10265,0.4268 0.20761,0.12831 0.51495,-0.18632 0.51495,-0.52716 v -0.30011 l -0.27454,-0.19229 c -0.15099,-0.10576 -0.34146,-0.32727 -0.42326,-0.49225 l -0.14872,-0.29996 -0.72076,-0.08334 0.0401,-0.26864 c 0.02205,-0.14775 0.1927,-0.38213 0.37921,-0.52084 l 0.33911,-0.2522 h 0.99394 l 0.56934,0.66189 -0.06901,0.26389 -0.06901,0.26388 h 0.18319 c 0.49974,0 0.61966,-0.51008 0.23491,-0.99921 -0.14224,-0.18083 -0.25862,-0.49346 -0.25862,-0.69473 v -0.36595 l -0.5664,-0.30313 0.29752,-0.24092 0.29752,-0.24092 h 0.42984 c 0.90086,0 1.3584,0.39479 0.89927,0.77587 -0.27006,0.22413 -0.24239,0.51725 0.04882,0.51725 0.36699,0 0.59773,-0.3701 0.59773,-0.95873 v -0.52835 l 0.71121,0.08316 v -0.19559 c 0,-0.10757 -0.05819,-0.23155 -0.12931,-0.27551 -0.07112,-0.04396 -0.12931,-0.14128 -0.12931,-0.21628 v -0.13636 l 0.61423,0.0828 c 0.33783,0.04554 0.83198,0.11537 1.0981,0.15519 l 0.48389,0.07239 -0.0313,0.40907 -0.0313,0.40907 0.81698,-0.07804 0.09291,0.15033 0.09291,0.15033 -0.74418,0.59799 0.45588,0.17816 0.19545,-0.16221 c 0.23412,-0.1943 0.38316,-0.07504 0.38316,0.3066 v 0.27927 h 0.35317 c 0.19424,0 0.35427,0.04364 0.35561,0.09698 0.0013,0.05334 0.0024,0.15517 0.0024,0.2263 0,0.07112 -0.14974,0.12931 -0.33276,0.12931 h -0.33276 l 0.08604,0.45259 1.3553,0.07818 v 0.19127 c 0,0.1052 -0.08729,0.22476 -0.19397,0.2657 -0.10668,0.04094 -0.19397,0.1264 -0.19397,0.18991 0,0.17735 0.56773,0.13697 0.8364,-0.05949 l 0.23927,-0.17496 0.73376,0.27696 0.42728,-0.42728 -0.14698,-0.36411 c -0.08084,-0.20026 -0.16222,-0.56777 -0.18085,-0.8167 l -0.03387,-0.45259 0.79782,-0.07786 -0.01098,0.29755 -0.01098,0.29755 0.26994,0.03857 c 0.14847,0.02121 0.34471,-0.05153 0.4361,-0.16164 0.09139,-0.11011 0.24632,-0.20021 0.34429,-0.20021 h 0.17813 v 0.62857 l 0.5819,0.08264 0.0828,0.58306 -0.20751,0.07963 c -0.11413,0.0438 -0.47054,0.006 -0.79202,-0.08402 l -0.5845,-0.16365 -0.15348,0.15348 -0.15348,0.15348 0.17487,0.10808 c 0.09618,0.05944 0.27801,0.08111 0.40406,0.04814 l 0.22918,-0.05993 0.20909,0.29852 c 0.115,0.16419 0.20909,0.39395 0.20909,0.51059 0,0.11664 0.1774,0.43529 0.39421,0.70812 l 0.39421,0.49605 -0.0772,0.91664 -0.74196,0.35397 -0.31314,-0.3377 c -0.17222,-0.18574 -0.38009,-0.3377 -0.46193,-0.3377 -0.08184,0 -0.04157,0.0784 0.08948,0.17423 l 0.23827,0.17423 -0.1489,0.09203 c -0.08189,0.05062 -0.1489,0.17699 -0.1489,0.28083 v 0.1888 l 0.29095,-0.06841 c 0.16002,-0.03762 0.37824,-0.01142 0.48492,0.05825 l 0.19397,0.12665 -0.16602,0.26783 c -0.17954,0.28964 -0.11216,0.51593 0.15361,0.51593 0.21982,0 0.59431,0.42156 0.59431,0.66902 0,0.10784 0.11451,0.2997 0.25446,0.42636 l 0.25446,0.23028 -0.13713,0.25623 -0.13713,0.25623 0.25482,0.25482 0.27251,-0.14584 c 0.14988,-0.08021 0.27251,-0.19806 0.27251,-0.26189 0,-0.06383 0.11638,-0.15298 0.25862,-0.19813 l 0.25862,-0.08208 v -0.62913 h 0.21796 c 0.11988,0 0.34968,-0.12374 0.51067,-0.27498 l 0.29271,-0.27498 0.42169,0.16182 -0.17046,0.77608 h 0.20126 c 0.11069,0 0.29814,-0.14786 0.41655,-0.32858 l 0.21529,-0.32858 -0.14582,-0.28565 c -0.0802,-0.15711 -0.271,-0.44113 -0.42399,-0.63116 l -0.27817,-0.34551 0.07905,-0.206 c 0.04348,-0.1133 0.22602,-0.26188 0.40564,-0.33018 l 0.32659,-0.12417 v -0.32648 c 0,-0.39814 0.03858,-0.4013 0.52337,-0.04288 l 0.38358,0.2836 0.28254,-0.28254 -0.08355,-0.26326 -0.08356,-0.26326 -1.1366,-0.43409 -0.2637,-0.75646 -0.38439,-0.134 c -0.40015,-0.13949 -0.78939,-0.60823 -0.78939,-0.95062 0,-0.22094 0.32783,-0.27107 0.45259,-0.06921 0.12095,0.1957 0.45259,0.15478 0.45259,-0.05584 0,-0.10184 -0.32005,-0.52091 -0.71121,-0.93128 -0.73652,-0.77267 -0.85218,-1.0359 -0.51243,-1.1663 l 0.19878,-0.07628 0.23197,0.20993 c 0.48122,0.4355 0.54925,-0.11441 0.07718,-0.62379 l -0.32778,-0.35368 -1.2562,0.17278 -0.18254,-0.29535 0.20664,-0.22833 c 0.25992,-0.28721 0.2682,-0.96573 0.01435,-1.1764 l -0.19229,-0.15958 -0.64992,0.16312 v 0.24853 c 0,0.32446 -0.19724,0.43655 -0.59326,0.33715 l -0.31994,-0.0803 -0.25413,-0.41679 c -0.32619,-0.53497 -0.32092,-0.59213 0.06818,-0.74007 0.55574,-0.21129 0.12643,-0.76568 -0.45101,-0.5824 l -0.24728,0.07848 -0.39056,-0.20197 c -0.21481,-0.11108 -0.45064,-0.31422 -0.52406,-0.4514 l -0.13349,-0.24944 0.16199,-0.1016 c 0.08909,-0.05588 0.26896,-0.08398 0.3997,-0.06244 l 0.23772,0.03916 -0.09102,-0.47272 -1.031,-0.34124 -1.4808,0.44494 -2.1399,-0.85192 -2.4784,-0.1248 -1.6703,0.417 c -6.6131,1.651 -10.3569999,4.4526 -13.6989999,10.251 -0.27671,0.48007 -0.55592,0.87285 -0.62046,0.87285 h -0.11734 l 0.09127,-0.73051 c 1.1227,-8.9852 9.5254999,-16.6670003 19.1739999,-17.5270003 l 1.7134,-0.15287 1.7134,0.15287 c 3.8427,0.34286 6.9339,1.4133 10.051,3.4806 l 1.4898,0.98799 1.6936,1.6899003 1.6936,1.6899 0.93266,1.4086 c 1.7199,2.5975 2.8545,5.4283 3.3745,8.4191 0.33887,1.9491 0.30657,6.1086 -0.0512,6.5979 l -0.15741,0.21527 -0.89803,0.03231 c -1.1434,0.04113 -1.1906,0.02026 -1.3576,-0.59998 l -0.13915,-0.51677 0.2024,-0.22365 c 0.38671,-0.42731 0.0578,-0.79519 -0.46219,-0.51692 l -0.25793,0.13804 -0.34693,-0.2293 c -0.19082,-0.12611 -0.66698,-0.26969 -1.0582,-0.31905 -0.39122,-0.04936 -0.80705,-0.12881 -0.92419,-0.17655 l -0.21297,-0.0868 -0.61276,0.66084 -1.1596,-0.19864 -2.59e-4,-0.25298 c -6.46e-4,-0.67816 -0.66433,-0.26576 -0.73274,0.4553 l -0.04287,0.45207 -1.4224,-0.0902 -0.20821,-0.18487 -0.20821,-0.18487 -0.32373,0.12308 c -0.17805,0.06769 -0.36393,0.22784 -0.41306,0.35587 l -0.08933,0.23279 0.2327,0.17016 0.2327,0.17016 -0.19334,0.12222 c -0.10634,0.06722 -0.34172,0.12312 -0.52308,0.12421 -0.3219,0.0019 -0.64009,0.20862 -0.64009,0.41578 0,0.0569 0.13835,0.10345 0.30745,0.10345 0.16909,0 0.38145,0.08917 0.4719,0.19816 l 0.16446,0.19816 -0.33469,1.0141 0.15326,1.294 -0.48869,0.38705 c -1.1627,0.92085 -2.946,1.6988 -4.6457,2.0266 l -0.94526,0.18229 -0.39441,-0.20396 c -0.21692,-0.11218 -0.36016,-0.14854 -0.31829,-0.0808 0.04186,0.06773 0.26648,0.19476 0.49915,0.28228 0.23267,0.08752 0.93342,0.38874 1.5572,0.66938 1.295,0.58259 2.7687,0.99107 3.8461,1.066 0.87996,0.06123 1.2914,0.25306 1.2914,0.60213 v 0.2556 l -1.0302,-0.16474 -0.08398,0.21884 c -0.04619,0.12036 -0.01806,0.28476 0.0625,0.36532 0.22219,0.22219 0.17619,0.45769 -0.12041,0.61643 l -0.26689,0.14284 -0.3689,-0.30616 0.07172,-0.28575 0.07172,-0.28575 -0.20063,-0.16651 c -0.26472,-0.2197 -0.59186,-0.08357 -0.59186,0.2463 v 0.26268 h -0.18788 c -0.10334,0 -0.33238,-0.06584 -0.509,-0.14631 -0.17661,-0.08047 -0.42184,-0.10766 -0.54495,-0.06042 l -0.22384,0.0859 0.15093,0.15093 c 0.08301,0.08301 0.15094,0.22658 0.15094,0.31904 v 0.1681 l -0.42026,-0.0042 c -0.23114,-0.0023 -0.7259,-0.10981 -1.0994,-0.23885 z m -3.7174,-15.533 0.25862,-0.11113 -0.19397,-0.0071 c -0.10668,-0.0039 -0.28125,0.0493 -0.38793,0.11824 -0.23638,0.15276 -0.03221,0.15276 0.32328,0 z m 11.741,13.97 c -0.03658,-0.13989 -0.17661,-0.28928 -0.31117,-0.33199 -0.35314,-0.11208 -0.30061,-0.43329 0.09551,-0.58389 0.18709,-0.07113 0.50417,-0.24611 0.70463,-0.38885 l 0.36446,-0.25952 0.67015,0.1682 0.24379,-0.22063 c 0.13409,-0.12135 0.34995,-0.20048 0.47971,-0.17586 l 0.23591,0.04477 0.0392,0.33644 0.0392,0.33644 -0.3571,0.42439 c -0.40437,0.48057 -1.2231,0.89777 -1.77,0.902 l -0.36771,0.0028 -0.06651,-0.25434 z m 2.0304,-2.3951 c 0,-0.17392 0.47397,-0.58338 0.67529,-0.58338 h 0.22989 v 0.24479 c 0,0.13463 -0.092,0.28011 -0.20454,0.32328 -0.24516,0.09408 -0.70064,0.10403 -0.70064,0.01531 z m 1.1638,-1.3464 c 0,-0.06406 0.14491,-0.42775 0.32202,-0.8082 0.17711,-0.38045 0.32258,-0.8275 0.32328,-0.99345 l 10e-4,-0.30173 0.32328,0.10654 0.0351,0.63639 0.0351,0.63639 -0.519,0.84052 h -0.26052 c -0.14332,0 -0.26055,-0.05241 -0.26055,-0.11647 z m 3.9052,-2.4956 c -0.22287,-0.22287 -0.19138,-0.36207 0.0819,-0.36207 0.30507,0 0.40928,0.10869 0.32209,0.33592 -0.0853,0.22215 -0.20053,0.22961 -0.40399,0.02615 z"
       fill="#f6ae3d"
       id="path17"
       style="stroke-width:0.12931" /><path
       d="m 22.172432,46.191426 c -0.37562,-0.05475 -0.87837,-0.13621 -1.1172,-0.18102 l -0.43429,-0.08147 -0.06663,-0.25478 c -0.07786,-0.29772 -0.11208,-0.3104 -1.3843,-0.51295 -0.53341,-0.08492 -1.1018,-0.20655 -1.263,-0.27028 l -0.29315,-0.11588 0.1606,-0.25716 0.1606,-0.25716 -0.31301,-0.31301 -3.0141,-0.34379 -0.51184,-0.28767 c -0.51703,-0.29059 -0.87441,-0.7913 -0.87441,-1.2251 0,-0.12995 -0.09329,-0.36947 -0.20732,-0.53226 l -0.20732,-0.29598 -0.40691,0.02739 c -0.2238,0.01506 -0.60035,0.01893 -0.83678,0.0086 l -0.42986,-0.01879 -0.78094,-0.74354 c -3.8509999,-3.6667 -6.1403999,-8.6579 -6.4019999,-13.958 l -0.07781,-1.5761 0.63351,-0.73202 c 1.1399,-1.3172 1.4684,-1.6349 1.6341,-1.5804 l 0.16326,0.05369 0.04028,0.55013 c 0.02215,0.30257 -0.05495,0.96723 -0.17135,1.477 -0.43927,1.9239 -0.37695,4.1765 0.16034,5.7952 l 0.22936,0.69101 0.44813,0.0838 -0.15668,-3.1862 0.14857,-1.2019 c 0.22866,-1.8498 0.75161,-2.9174 1.8834,-3.8448 l 0.57654,-0.47243 1.0104999,-0.13554 0.08859,0.14335 c 0.04873,0.07884 -0.17171,0.62375 -0.48986,1.2109 -0.3181499,0.58716 -0.7122999,1.504 -0.8758999,2.0374 l -0.29744,0.96984 -0.0041,1.3141 c -0.0037,1.1865 0.07331,1.6258 0.25352,1.4456 0.03502,-0.03502 0.15126,-0.58298 0.2583,-1.2177 0.32931,-1.9527 1.3104999,-3.9605 2.1743999,-4.4496 l 0.33932,-0.19207 0.15999,0.15999 0.15999,0.15999 -1.5737,3.0454 -0.15257,0.73491 c -0.17729,0.85402 -0.13868,1.673 0.08229,1.7455 l 0.15398,0.05055 0.15236,-0.5578 c 0.49639,-1.8174 0.72913,-2.2239 1.3646,-2.3834 l 0.33064,-0.08299 0.43009,0.43009 0.0182,5.4871 0.21939,0.75701 c 1.076,3.7128 2.9828,5.9645 7.7449,9.1462 2.4538,1.6394 6.1859,3.3513 7.3063,3.3513 h 0.21629 l -0.12284,0.11354 c -0.36812,0.34023 -4.5249,0.52144 -6.2369,0.27189 z m 7.0192,-0.99358 c -0.42673,-0.10182 -1.4742,-0.38713 -2.3276,-0.634 l -1.5517,-0.44887 -1.4224,-0.70168 c -2.2847,-1.127 -2.8205,-1.7777 -0.80722,-0.9802 3.0227,1.1974 5.4916,1.9573 8.0487,2.4775 l 0.77587,0.15782 -0.38793,0.16901 c -0.48871,0.21291 -1.3295,0.19863 -2.3276,-0.03954 z m 4.0161,-1.2774 -0.25081,-0.1834 h 0.21105 c 0.11608,0 0.24941,0.06206 0.29629,0.13792 0.13706,0.22177 0.01432,0.24353 -0.25653,0.04548 z m -1.0455,-0.16012 c -0.06912,-0.06142 -0.76316,-0.27418 -1.5423,-0.47278 l -1.4166,-0.36109 -0.09778,0.29335 h -0.48542 c -0.603,0 -2.3629,-0.52776 -4.7301,-1.4185 -3.5686,-1.3427 -5.4292,-2.522 -7.1429,-4.5271 l -0.82651,-0.96706 -0.50858,-1.0373 c -0.27972,-0.57049 -0.60544,-1.4155 -0.72383,-1.8778 l -0.21525,-0.84052 0.09122,-0.48335 0.09122,-0.48335 0.25908,-0.13866 0.25908,-0.13866 0.95438,0.46814 0.48655,0.64656 c 0.2676,0.35561 0.92608,1.5049 1.4633,2.5539 1.0064,1.9653 1.2217,2.2241 1.2217,1.4686 v -0.43876 l 0.37026,-0.14208 0.55841,0.42875 c 0.30713,0.23581 0.95781,0.89813 1.446,1.4718 1.4319,1.6829 3.4421,3.2518 5.4774,4.275 1.2269,0.61678 1.1283,0.49584 -0.48726,-0.59771 l -1.4805,-1.0022 -0.98926,-0.989 c -0.5441,-0.54395 -1.1485,-1.2606 -1.343,-1.5926 l -0.35375,-0.60363 0.22857,-0.22843 0.40904,0.19815 c 0.22497,0.10898 0.98144,0.70416 1.681,1.3226 2.4001,2.1218 3.8797,3.1247 6.4445,4.3687 0.92458,0.44842 1.6131,0.81675 1.53,0.81851 -0.08308,0.0018 -0.2302,0.03356 -0.32692,0.07067 -0.09672,0.03712 -0.23241,0.01722 -0.30153,-0.0442 z m -8.5956,-2.6532 c 0,-0.02405 -0.45097,-0.39701 -1.0022,-0.82878 -0.55119,-0.43178 -1.3774,-1.1376 -1.836,-1.5686 -1.0032,-0.94268 -1.1198,-0.94132 -0.3497,0.0041 0.80588,0.9893 3.1878,2.7776 3.1878,2.3933 z m 10.28,2.1665 c -2.1543,-0.58348 -4.7038,-1.9963 -5.9856,-3.317 l -0.55449,-0.57132 -0.02741,-0.37297 -0.02742,-0.37297 0.46727,-0.09658 2.0293,1.1671 c 2.5971,1.4936 4.2148,2.2594 5.5529,2.6286 0.58684,0.16192 1.067,0.33311 1.067,0.38041 0,0.08593 -1.2036,0.89728 -1.3044,0.87936 -0.02933,-0.0052 -0.57705,-0.15132 -1.2171,-0.32468 z m 2.8372,-1.9776 c -1.7231,-0.49345 -2.6429,-1.0047 -2.2474,-1.2491 0.06925,-0.0428 0.77954,0.2097 1.5784,0.5611 0.79888,0.3514 1.598,0.70066 1.7758,0.77613 l 0.32328,0.13722 -0.32328,-5.18e-4 c -0.1778,-2.58e-4 -0.67588,-0.10144 -1.1068,-0.22485 z m 1.2879,-0.64344 c -0.74472,-0.5449 -0.97928,-0.85775 -1.0016,-1.3359 l -0.01999,-0.42878 0.69403,-0.08018 0.9882,0.3957 c 0.54351,0.21763 1.0711,0.39569 1.1724,0.39569 0.32315,0 0.19967,0.29773 -0.35997,0.86796 -0.64203,0.65418 -0.80452,0.67464 -1.4731,0.18546 z m -7.9077,-3.2362 c -1.0635,-0.36741 -1.4853,-0.90741 -1.0142,-1.2984 l 0.1816,-0.15071 0.34845,0.08745 0.34845,0.08746 -0.04513,-0.22966 c -0.02482,-0.12632 -0.14676,-0.29367 -0.27098,-0.3719 l -0.22585,-0.14223 -0.55393,0.34594 -0.30887,-0.1653 c -0.16988,-0.09092 -0.34042,-0.31465 -0.37899,-0.49719 -0.03856,-0.18254 -0.12303,-0.46282 -0.18771,-0.62284 l -0.11759,-0.29095 h -0.25497 c -0.14023,0 -0.30676,-0.09255 -0.37007,-0.20567 l -0.1151,-0.20567 -0.62318,0.08806 -0.04173,0.43642 -0.04172,0.43642 0.8964,-0.16816 0.1431,0.4105 c 0.19094,0.54773 0.18378,0.59966 -0.10394,0.75365 l -0.24704,0.13221 -0.54509,-0.19232 c -0.72283,-0.25504 -0.77119,-0.24683 -0.77119,0.13095 v 0.32328 l -0.48492,-0.0017 c -0.72014,-0.0026 -2.4996,-0.66757 -3.6856,-1.3774 l -1.0447,-0.62522 -1.1249,-1.0649 c -2.2421,-2.1225 -3.8103,-5.0774 -2.6946,-5.0774 h 0.24799 l 0.12291,0.32328 0.12291,0.32328 h 0.26588 c 0.14624,0 0.30021,-0.08945 0.34216,-0.19878 l 0.07628,-0.19878 -0.41722,-0.46102 0.34019,-0.46524 0.55646,0.34752 0.31069,-0.31069 -0.48873,-0.54004 -1.2057,0.16582 -0.07165,-0.36552 c -0.03941,-0.20104 -0.09031,-0.48188 -0.11312,-0.62408 l -0.04146,-0.25856 0.28002,-0.03995 c 0.15401,-0.02197 0.31282,-0.12544 0.35292,-0.22992 l 0.0729,-0.18998 -0.51187,-0.43827 -0.0019,-0.45618 c -0.0037,-0.87956 -0.50537,-1.3871 -1.1383,-1.1515 l -0.29963,0.11154 0.04101,0.35656 0.041,0.35656 0.84052,-0.03814 v 0.17013 c 0,0.3411 -0.17142,0.60163 -0.47074,0.71543 l -0.30616,0.1164 -0.63883,-0.29107 -0.22965,-0.595 -0.22965,-0.595 0.0091,-0.84288 0.0091,-0.84289 0.33431,-0.73023 0.33431,-0.73023 0.32909,-0.21563 c 0.181,-0.1186 0.43378,-0.1942 0.56174,-0.168 l 0.23265,0.04763 -0.0357,0.3413 c -0.01963,0.18771 0.02656,0.37977 0.10265,0.4268 0.20761,0.12831 0.51495,-0.18632 0.51495,-0.52716 v -0.30011 l -0.27454,-0.19229 c -0.15099,-0.10576 -0.34146,-0.32727 -0.42326,-0.49225 l -0.14872,-0.29996 -0.72076,-0.08334 0.0401,-0.26864 c 0.02205,-0.14775 0.1927,-0.38213 0.37921,-0.52084 l 0.33911,-0.2522 h 0.99394 l 0.56934,0.66189 -0.06901,0.26389 -0.06901,0.26388 h 0.18319 c 0.49974,0 0.61966,-0.51008 0.23491,-0.99921 -0.14224,-0.18083 -0.25862,-0.49346 -0.25862,-0.69473 v -0.36595 l -0.5664,-0.30313 0.29752,-0.24092 0.29752,-0.24092 h 0.42984 c 0.90086,0 1.3584,0.39479 0.89927,0.77587 -0.27006,0.22413 -0.24239,0.51725 0.04882,0.51725 0.36699,0 0.59773,-0.3701 0.59773,-0.95873 v -0.52835 l 0.71121,0.08316 v -0.19559 c 0,-0.10757 -0.05819,-0.23155 -0.12931,-0.27551 -0.07112,-0.04396 -0.12931,-0.14128 -0.12931,-0.21628 v -0.13636 l 0.61423,0.0828 c 0.33783,0.04554 0.83198,0.11537 1.0981,0.15519 l 0.48389,0.07239 -0.0313,0.40907 -0.0313,0.40907 0.81698,-0.07804 0.09291,0.15033 0.09291,0.15033 -0.74418,0.59799 0.45588,0.17816 0.19545,-0.16221 c 0.23412,-0.1943 0.38316,-0.07504 0.38316,0.3066 v 0.27927 h 0.35317 c 0.19424,0 0.35427,0.04364 0.35561,0.09698 0.0013,0.05334 0.0024,0.15517 0.0024,0.2263 0,0.07112 -0.14974,0.12931 -0.33276,0.12931 h -0.33276 l 0.08604,0.45259 1.3553,0.07818 v 0.19127 c 0,0.1052 -0.08729,0.22476 -0.19397,0.2657 -0.10668,0.04094 -0.19397,0.1264 -0.19397,0.18991 0,0.17735 0.56773,0.13697 0.8364,-0.05949 l 0.23927,-0.17496 0.73376,0.27696 0.42728,-0.42728 -0.14698,-0.36411 c -0.08084,-0.20026 -0.16222,-0.56777 -0.18085,-0.8167 l -0.03387,-0.45259 0.79782,-0.07786 -0.01098,0.29755 -0.01098,0.29755 0.26994,0.03857 c 0.14847,0.02121 0.34471,-0.05153 0.4361,-0.16164 0.09139,-0.11011 0.24632,-0.20021 0.34429,-0.20021 h 0.17813 v 0.62857 l 0.5819,0.08264 0.0828,0.58306 -0.20751,0.07963 c -0.11413,0.0438 -0.47054,0.006 -0.79202,-0.08402 l -0.5845,-0.16365 -0.15348,0.15348 -0.15348,0.15348 0.17487,0.10808 c 0.09618,0.05944 0.27801,0.08111 0.40406,0.04814 l 0.22918,-0.05993 0.20909,0.29852 c 0.115,0.16419 0.20909,0.39395 0.20909,0.51059 0,0.11664 0.1774,0.43529 0.39421,0.70812 l 0.39421,0.49605 -0.0772,0.91664 -0.74196,0.35397 -0.62627,-0.67541 h -1.6808 l -0.47977,0.24767 c -0.67277,0.3473 -1.3873,1.1272 -1.7168,1.8738 l -0.27999,0.63443 -0.08221,0.9173 c -0.04521,0.50452 -0.04037,1.3648 0.01077,1.9117 l 0.09299,0.99437 0.31211,0.76811 c 0.64874,1.5966 2.7614,3.9855 4.1016,4.638 2.5203,1.2271 4.2345,1.8007 5.6828,1.9014 0.87996,0.06123 1.2914,0.25306 1.2914,0.60213 v 0.2556 l -1.0302,-0.16474 -0.08398,0.21884 c -0.04619,0.12036 -0.01806,0.28476 0.0625,0.36532 0.2222,0.22219 0.1762,0.45769 -0.12041,0.61643 l -0.26689,0.14284 -0.18445,-0.15308 -0.18445,-0.15308 0.07172,-0.28575 0.07172,-0.28575 -0.20063,-0.16651 c -0.26472,-0.2197 -0.59185,-0.08357 -0.59185,0.2463 v 0.26268 h -0.18788 c -0.10334,0 -0.33238,-0.06584 -0.509,-0.14631 -0.17661,-0.08047 -0.42184,-0.10766 -0.54495,-0.06042 l -0.22384,0.0859 0.15093,0.15093 c 0.08301,0.08301 0.15094,0.22658 0.15094,0.31904 v 0.1681 l -0.42026,-0.0042 c -0.23114,-0.0023 -0.7259,-0.10981 -1.0994,-0.23885 z m 8.0239,-1.563 c -0.03658,-0.13989 -0.17661,-0.28928 -0.31117,-0.33199 -0.35314,-0.11208 -0.30061,-0.43329 0.09551,-0.58389 0.18709,-0.07113 0.50417,-0.24611 0.70463,-0.38885 l 0.36446,-0.25952 0.67015,0.1682 0.24379,-0.22063 c 0.13409,-0.12135 0.34995,-0.20048 0.47971,-0.17586 l 0.23591,0.04477 0.0392,0.33644 0.0392,0.33644 -0.3571,0.42439 c -0.40437,0.48057 -1.2231,0.89777 -1.77,0.902 l -0.36771,0.0028 -0.06651,-0.25434 z m 2.0304,-2.3951 c 0,-0.17392 0.47397,-0.58338 0.67529,-0.58338 h 0.22989 v 0.24479 c 0,0.13463 -0.092,0.28011 -0.20454,0.32328 -0.24516,0.09408 -0.70064,0.10403 -0.70064,0.01531 z m 1.1638,-1.3464 c 0,-0.06406 0.14491,-0.42775 0.32202,-0.8082 0.17711,-0.38045 0.32258,-0.8275 0.32328,-0.99345 l 10e-4,-0.30173 0.32328,0.10654 0.0351,0.63639 0.0351,0.63639 -0.519,0.84052 h -0.26052 c -0.14332,0 -0.26055,-0.05241 -0.26055,-0.11647 z"
       fill="#0a9fce"
       id="path19"
       style="stroke-width:0.12931" /></g></svg>
